# xmcd CD database file
#
# Track frame offsets:
#	150
#	10670
#	21920
#	31550
#	42775
#	51877
#	60330
#	69692
#	80445
#	89955
#	102557
#	112550
#
# Disc length: 1621 seconds
#
# Revision: 0
# Processed by: cddbd v1.5.2PL0 Copyright (c) Steve Scherf et al.
# Submitted via: CDex 1.51
#
DISCID=8d06530c
DTITLE=Sam Butera - The Big Horn
DYEAR=1962
DGENRE=Jazz
TTITLE0=La Vie En Rose 
TTITLE1=All The Way
TTITLE2=Tennessee Waltz
TTITLE3=Love is a Many Splendored Thing
TTITLE4=Too Young
TTITLE5=Around the World
TTITLE6=Three Coins in The Fountain
TTITLE7=I Love Paris
TTITLE8=On The Street Where You Live
TTITLE9=Hey There
TTITLE10=The Song From Moulin Rouge
TTITLE11=Rock A Bye Your Baby wiht A Dixie Melody
EXTD=YEAR: 1962
EXTT0=
EXTT1=
EXTT2=
EXTT3=
EXTT4=
EXTT5=
EXTT6=
EXTT7=
EXTT8=
EXTT9=
EXTT10=
EXTT11=
PLAYORDER=
